<svg width="36" height="36" viewBox="0 0 36 36" fill="none" xmlns="http://www.w3.org/2000/svg">
<path fill-rule="evenodd" clip-rule="evenodd" d="M32.3996 18.0001C32.3996 21.8192 30.8825 25.4819 28.1819 28.1824C25.4814 30.883 21.8187 32.4001 17.9996 32.4001C14.1805 32.4001 10.5178 30.883 7.81727 28.1824C5.11675 25.4819 3.59961 21.8192 3.59961 18.0001C3.59961 14.181 5.11675 10.5183 7.81727 7.81776C10.5178 5.11724 14.1805 3.6001 17.9996 3.6001C21.8187 3.6001 25.4814 5.11724 28.1819 7.81776C30.8825 10.5183 32.3996 14.181 32.3996 18.0001ZM19.7996 25.2001C19.7996 25.6775 19.61 26.1353 19.2724 26.4729C18.9348 26.8105 18.477 27.0001 17.9996 27.0001C17.5222 27.0001 17.0644 26.8105 16.7268 26.4729C16.3893 26.1353 16.1996 25.6775 16.1996 25.2001C16.1996 24.7227 16.3893 24.2649 16.7268 23.9273C17.0644 23.5897 17.5222 23.4001 17.9996 23.4001C18.477 23.4001 18.9348 23.5897 19.2724 23.9273C19.61 24.2649 19.7996 24.7227 19.7996 25.2001ZM17.9996 9.0001C17.5222 9.0001 17.0644 9.18974 16.7268 9.52731C16.3893 9.86487 16.1996 10.3227 16.1996 10.8001V18.0001C16.1996 18.4775 16.3893 18.9353 16.7268 19.2729C17.0644 19.6105 17.5222 19.8001 17.9996 19.8001C18.477 19.8001 18.9348 19.6105 19.2724 19.2729C19.61 18.9353 19.7996 18.4775 19.7996 18.0001V10.8001C19.7996 10.3227 19.61 9.86487 19.2724 9.52731C18.9348 9.18974 18.477 9.0001 17.9996 9.0001Z" fill="#C82438"/>
</svg>
